<?xml version="1.0" encoding="utf-8" ?>
<svg xmlns="http://www.w3.org/2000/svg" xmlns:xlink="http://www.w3.org/1999/xlink" width="1024" height="1024">
	<path fill="#F1FF03" transform="scale(2 2)" d="M260.937 485.989L24.3116 486.002L24.3058 254.936C24.3267 225.927 29.647 196.522 41.024 169.772C76.7121 85.8621 157.846 23.4658 250.911 22.9377L273.533 23.6979C327.097 27.4357 375.665 49.384 414.263 87.1628C452.774 124.858 480.513 174.433 486.229 228.555C487.79 243.336 487.498 258.161 487.5 273L487.581 485.626C486.624 486.359 281.645 486.005 260.937 485.989ZM193.928 104.109C166.11 105.67 136.555 115.694 114.524 132.625C102.903 141.557 83.1876 160.672 82.7326 175.875L82.6357 221.753C82.638 225.159 81.762 230.388 83.1029 233.551L83.1925 233.78C85.4575 239.17 90.7042 239.359 95.5613 239.358L162.885 239.436C162.304 282.333 148.014 326.718 130.605 365.435L118.614 391.171C114.845 398.929 107.215 407.758 119.352 413.956L185 445.296C196.386 450.853 204.664 458.44 212.869 444.485L256.331 371.852L287.963 425.634L298.251 443.445C305.858 457.119 311.838 452.489 324.074 446.49L375.528 421.852C382.35 418.626 402.931 412.65 399.052 401.734C397.338 396.909 394.514 392.286 392.153 387.738L382.791 368.48C365.642 330.041 349.37 282.093 348.758 239.287L414.931 239.317C426.279 239.31 429.245 237.621 429.275 224.559L429.273 174.625C429.2 165.901 422.39 157.646 417.018 151.375C392.683 122.972 358.064 106.638 320.783 104.426C313.981 104.022 312.01 107.288 306.74 111.105C273.22 135.383 236.235 132.079 203.545 109.491C201.022 107.748 197.196 103.856 193.928 104.109Z"/>
	<path fill="#F1FF03" transform="scale(2 2)" d="M275.395 220.188L263.608 245.374C256.211 260.302 256.364 261.298 249.144 246.217L234.681 212.153L216.018 160.456L210.599 141.346L217.363 144.052C245.234 154.781 275.587 154.143 303.053 141.965C298.05 167.215 285.778 196.943 275.395 220.188Z"/>
	<path fill="#F1FF03" transform="scale(2 2)" d="M258.42 298.654C244.883 300.231 242.372 283.035 253.834 278.778C267.038 277.631 270.547 294.804 258.42 298.654Z"/>
	<path fill="#F1FF03" transform="scale(2 2)" d="M256.394 344.185C242.787 343.09 243.685 326.288 255.726 324.328C268.505 325.041 269.547 342.569 256.394 344.185Z"/>
</svg>
